<svg version="1.2" xmlns="http://www.w3.org/2000/svg" viewBox="0 0 964 869" width="964" height="869">
	<title>hound_hero-doggo_123122</title>
	<defs>
		<clipPath clipPathUnits="userSpaceOnUse" id="cp1">
			<path d="m670.79-301.57c58.17-11.96 18.98 107.44 12.67 227.93-2.64 50.38-1.24 93.48-3.96 151.26-2.09 44.46-9.68 90.45-8.07 124.41 2.15 45.49 9 46.61 15.02 44.27 6.13-2.38 16.96-7.94 34.8-11.36 15.21-2.91 32.02-1.74 53.46-5.87 24.08-4.63 51.02-16.23 71.39-26.42 91.02-45.54 164.09-136.11 164.99-129.56 22.6 165.06 30.62 474.87-2.88 471.05-68.56-7.83-108.88 30.47-148.95 60.49-40.06 30.02-169.69 148.08-240.34 176.96-70.64 28.89-137.42 63.93-260.03 71.15-79.96 4.71-158.41-32.46-196.08-47.91-133.65-63.07-141.56-118.66-147.17-155.22-5.6-36.55-18.77-98.66 40.23-118.35 62.48-27.59 108.49-60.66 135.22-97.26 42.89-58.72 47.55-141.53 51.38-203.65 3.98-64.69 25.06-199.84 104.27-230.35 22.51-8.67 169.42-269.78 324.05-301.57z"/>
		</clipPath>
	</defs>
	<style>
		.s0 { fill: #c8efff } 
		.s1 { fill: #000000 } 
		.s2 { fill: none;stroke: #ffffff;stroke-linecap: round;stroke-width: 34 } 
		.s3 { fill: none;stroke: #ffc0c0;stroke-linecap: round;stroke-width: 100 } 
	</style>
	<g clip-path="url(#cp1)">
		<path id="Layer 2" class="s0" d="m670.8-301.6c58.2-11.9 19 107.5 12.7 228-2.7 50.3-1.3 93.4-4 151.2-2.1 44.5-9.7 90.5-8.1 124.4 2.2 45.5 9 46.6 15 44.3 6.2-2.4 17-7.9 34.9-11.4 15.2-2.9 32-1.7 53.4-5.8 24.1-4.7 51-16.3 71.4-26.4 91-45.6 164.1-136.2 165-129.6 22.6 165.1 30.6 474.9-2.9 471-68.5-7.8-108.9 30.5-148.9 60.5-40.1 30.1-169.7 148.1-240.4 177-70.6 28.9-137.4 63.9-260 71.1-80 4.7-158.4-32.4-196.1-47.9-133.6-63-141.5-118.6-147.2-155.2-5.6-36.5-18.7-98.6 40.3-118.3 62.4-27.6 108.5-60.7 135.2-97.3 42.9-58.7 47.5-141.5 51.4-203.7 4-64.6 25-199.8 104.2-230.3 22.5-8.7 169.5-269.8 324.1-301.6z"/>
		<path id="Shape 2" class="s1" d="m13.5 540.4c0 0 50.8-43.1 171 40.4 53.9 37.4 30.6 110-4.2 130.4-32.9 19.2-86.8 21.1-125.4-7.5-32.4-24-48.2-68.8-54.9-93.7-10.1-37.5 0-51.4 0-51.4z"/>
		<path id="Shape 1" class="s1" d="m990-70l11.1 427.5c0 0-161.9 135.5-310.8 169.4-128.5 29.2-243-26.5-271-53.7-58.5-56.7-67.2-123.5-67.2-170.9 0-46.9 23-146.5 67.5-226.6 47.1-84.8 137.7-136 137.7-136z"/>
		<path id="Shape 3" class="s2" d="m517.4 423.2c11.1-119.9 140.4-102.8 150.8-15.7"/>
		<path id="Layer 4" class="s3" d="m155.2 805.1c96 45.8 314.1 40 408.7-54.6"/>
	</g>
	<path id="Layer 3" class="s1" d="m241.6-19.7c0 0-18.3 15.7-31.4 38.3-10.5 18.2-16.2 41.4-17.9 61.4-3.6 44.8-53.7 129.4-56.1 130.3-2.4 0.9-9.6-0.5-12.2-2.3-2.6-1.8-15.3-53.5-26.5-71.8-11.1-18.2-65-142.4-45.9-174.8 4.4-24.6 190 18.9 190 18.9z"/>
</svg>